<svg width="25" height="25" viewBox="0 0 25 25" fill="none" xmlns="http://www.w3.org/2000/svg">
<path d="M23.6198 0H1.38021C0.617708 0 0 0.617708 0 1.38021V23.6208C0 24.3823 0.617708 25 1.38021 25H13.3542V15.3187H10.0958V11.5458H13.3542V8.76354C13.3542 5.53437 15.326 3.77604 18.2073 3.77604C19.5875 3.77604 20.7729 3.87917 21.1187 3.925V7.3L19.1208 7.30104C17.5542 7.30104 17.251 8.04583 17.251 9.1375V11.5469H20.9875L20.501 15.3198H17.251V25H23.6219C24.3823 25 25 24.3823 25 23.6198V1.38021C25 0.617708 24.3823 0 23.6198 0V0Z" fill="black"/>
</svg>
