<svg width="25" height="25" fill="none" xmlns="http://www.w3.org/2000/svg"><path d="M4.72 9.324a2.63 2.63 0 01-1.124 1.12l6.174 6.198 1.49-.755-6.54-6.563zm8.145 8.176l-1.489.754 3.13 3.14c.25-.48.643-.87 1.124-1.119L12.865 17.5zM20.01 11.776l-3.497 1.772.258 1.648 3.955-2.004a2.63 2.63 0 01-.717-1.416zm-5.526 2.8L6.22 18.765c.38.387.63.881.717 1.416l7.806-3.956-.258-1.649zM11.826 4.258l-3.988 7.786 1.177 1.182 4.223-8.243a2.63 2.63 0 01-1.412-.725zM6.801 14.07l-2.02 3.944a2.63 2.63 0 011.411.724l1.786-3.486-1.177-1.182zM3.561 10.46a2.63 2.63 0 01-1.567.248l1.18 7.546a2.63 2.63 0 011.567-.248L3.56 10.46zM6.943 20.218c.027.175.036.353.027.53a2.63 2.63 0 01-.277 1.037l7.544 1.211a2.624 2.624 0 01-.028-.53c.02-.361.115-.714.277-1.037l-7.543-1.21zM20.753 13.22l-3.482 6.797a2.63 2.63 0 011.412.725l3.482-6.798a2.63 2.63 0 01-1.412-.725zM16.004 3.605a2.63 2.63 0 01-1.125 1.12l5.392 5.413a2.63 2.63 0 011.125-1.12l-5.392-5.413zM11.082 2.815L4.266 6.269c.379.387.63.882.717 1.416l6.816-3.455a2.63 2.63 0 01-.717-1.415zM14.867 4.731a2.63 2.63 0 01-1.566.262l.604 3.866 1.647.264-.685-4.392zm-.611 6.376l1.427 9.141a2.63 2.63 0 011.57-.234l-1.35-8.643-1.647-.264zM4.988 7.714c.028.178.037.358.029.538a2.63 2.63 0 01-.274 1.03l3.87.622.76-1.486-4.385-.704zM11.62 8.78l-.761 1.486 9.143 1.468a2.628 2.628 0 01-.027-.524 2.63 2.63 0 01.28-1.043L11.62 8.78z"/><path d="M13.544 4.778a2.39 2.39 0 10.26-4.774 2.39 2.39 0 00-.26 4.774zM22.471 13.74a2.39 2.39 0 10.26-4.775 2.39 2.39 0 00-.26 4.774zM16.705 24.996a2.39 2.39 0 10.26-4.774 2.39 2.39 0 00-.26 4.774zM4.214 22.992a2.39 2.39 0 10.26-4.774 2.39 2.39 0 00-.26 4.774zM2.26 10.496a2.39 2.39 0 10.26-4.774 2.39 2.39 0 00-.26 4.774z" /></svg>