<svg width="143" height="50" fill="none" xmlns="http://www.w3.org/2000/svg"><path d="M44.101 21.463a9.513 9.513 0 01-3.465.819c-.964 0-1.446-.2-1.446-.6 0-.255.537-.4 1.61-.437a6.491 6.491 0 002.32-.382 3.468 3.468 0 002.075-3.216 5.13 5.13 0 00-.604-2.296c-1.165-2.073-3.984-3.11-8.459-3.11a26.62 26.62 0 00-7.75 1.17 16.355 16.355 0 00-6.493 3.605c-1.748 1.619-2.622 3.12-2.622 4.502 0 2.11 2.092 3.656 6.276 4.638l6.44 1.201c2.036.28 4 .949 5.784 1.969a4.836 4.836 0 012.51 4.365c-.01.833-.139 1.66-.382 2.456-1.164 3.929-4.165 6.93-9.004 9.004a35.185 35.185 0 01-14.297 2.67 33.483 33.483 0 01-4.095-.218 18.741 18.741 0 004.582 1.691c.145.037.218.11.218.219 0 .325-.382.487-1.146.487-1.494 0-3.35-.891-5.567-2.674a14.324 14.324 0 01-6.762-2.506 10.914 10.914 0 01-2.619-3.384 8.706 8.706 0 01-1.201-4.038 5.819 5.819 0 01.71-3.006C1.803 32.465 3.186 31.5 4.86 31.5c1.273 0 2.02 1.072 2.24 3.216.51 4.148.856 6.512 1.036 7.095a10.233 10.233 0 002.784 4.53c1.635.336 3.301.5 4.971.486 3.97-.006 7.9-.8 11.561-2.335a16.198 16.198 0 008.186-6.657 5.934 5.934 0 001.037-3.001c0-1.71-1.51-3.038-4.53-3.984l-9.606-2.185a10.402 10.402 0 01-4.719-2.345 4.998 4.998 0 01-1.773-3.765c0-2.183 1.365-4.366 4.094-6.549a22.607 22.607 0 017.611-3.899 29.84 29.84 0 018.845-1.395c2.453-.08 4.896.347 7.176 1.255 2.437 1.128 3.656 2.774 3.656 4.939a4.63 4.63 0 01-3.329 4.557zM8.953 45.802a17.59 17.59 0 01-4.038-9.55c-.325-2.292-.634-3.438-.927-3.438-.291 0-.576.085-.819.246-.344.281-.607.649-.764 1.064-.28.674-.41 1.4-.382 2.129a9.915 9.915 0 002.945 7.204 9.508 9.508 0 003.984 2.346l.001-.001zM63.69 27.684a.292.292 0 01.327-.327 1.694 1.694 0 011.524 1.2 7.163 7.163 0 01.655 3.606c0 2.62-1.146 5.303-3.438 8.05-2.292 2.746-4.765 4.12-7.418 4.12a3.527 3.527 0 01-3.083-1.852 7.058 7.058 0 01-1.17-3.82c.059-1.635.354-3.253.878-4.803a70.177 70.177 0 00-4.646 5.424 63.32 63.32 0 00-4.148 5.652 3.166 3.166 0 01-1.505-.6c-.636-.4-.954-.783-.954-1.146 0-.873 1.11-3.757 3.328-8.65 2.22-4.893 3.876-7.34 4.97-7.34a1.424 1.424 0 011.092.575c.25.235.42.541.487.877a56.949 56.949 0 01-2.975 5.618c-1.982 3.547-2.957 5.685-2.923 6.412 3.456-4.184 5.293-6.403 5.512-6.658 3.534-4.08 5.846-6.12 6.938-6.12.441.019.86.204 1.17.518a1.396 1.396 0 01.574.928 8.158 8.158 0 01-1.528 2.429 32.6 32.6 0 00-2.592 3.956A8.032 8.032 0 0053.7 39.63c0 2.292.764 3.438 2.292 3.438h.71c1.963 0 3.755-1.5 5.375-4.502s2.43-5.412 2.428-7.23a6.693 6.693 0 00-.71-3.384.368.368 0 01-.105-.27l-.001.001zm5.348 17.845c-.37.005-.74-.05-1.092-.164-2.328-.655-3.492-1.964-3.492-3.929 0-2.547 1.6-5.493 4.802-8.84 3.201-3.347 6.075-5.022 8.622-5.025a3.02 3.02 0 012.047.682 2.119 2.119 0 01.79 1.665c0 2.037-1.537 3.983-4.611 5.839-3.074 1.855-5.575 2.784-7.503 2.785a2.418 2.418 0 01-.764-.107 6.313 6.313 0 00-.819 3.11c0 1.892.9 2.837 2.702 2.837 1.8 0 4.14-1.218 7.016-3.656a34.872 34.872 0 005.675-5.675c.325-.436.607-.655.846-.655s.357.11.355.328a1.838 1.838 0 01-.437.928 33.546 33.546 0 01-7.094 6.877c-2.767 2-5.115 3-7.043 3zM79.35 29.812c0-.436-.464-.655-1.392-.655-.927 0-2.246.71-3.956 2.13a24.36 24.36 0 00-5.349 5.944c.23.074.47.11.71.108 1.382 0 3.229-.736 5.539-2.21 2.31-1.473 3.756-3.083 4.338-4.83.066-.154.103-.319.108-.487h.002zm5.075 15.717c-.37.005-.74-.05-1.092-.164-2.328-.655-3.492-1.964-3.492-3.929 0-2.547 1.6-5.493 4.802-8.84 3.201-3.347 6.075-5.022 8.622-5.025a3.02 3.02 0 012.047.682 2.322 2.322 0 01.79 1.852 5.081 5.081 0 01-.709 2.456 2.291 2.291 0 01-2.128 1.282c-.946 0-1.419-.292-1.419-.877.097-.66.35-1.286.737-1.828.274-.42.52-.857.736-1.31 0-.055-.054-.082-.163-.082a9.628 9.628 0 00-4.175 2.183 18.324 18.324 0 00-3.628 3.383l-2.129 3.123a6.236 6.236 0 00-.79 2.073 9.895 9.895 0 00-.246 1.801c.057.522.299 1.007.683 1.365a2.462 2.462 0 001.937.764c1.82 0 4.075-1.064 6.767-3.192a34.837 34.837 0 006.221-6.085.826.826 0 01.655-.327c.255 0 .382.072.382.218a.948.948 0 01-.273.545 32.594 32.594 0 01-7.176 6.958c-2.784 1.983-5.104 2.974-6.96 2.974zm24.229-.928c-2.144 0-3.215-1.255-3.215-3.765a9.597 9.597 0 011.5-4.72 216.396 216.396 0 013.684-6.085 39.502 39.502 0 00-12.665 10.314c-2.11 3.165-3.347 4.747-3.71 4.747-1.056 0-1.583-.309-1.583-.928.101-.619.324-1.212.655-1.746 3.528-6.294 6.202-10.895 8.022-13.806 4.329-6.951 7.385-10.717 9.168-11.297a.487.487 0 01.218-.054c.473 0 .8.382.982 1.146-.109.764-2 3.529-5.674 8.294-3.82 4.84-5.985 8.004-6.494 9.496 1.346-.982 3.692-2.638 7.039-4.97 3.602-2.51 5.985-3.765 7.148-3.765 1.163 0 1.745.454 1.746 1.364.005.101-.004.202-.027.3-.018.055-1.282 1.774-3.793 5.158-2.51 3.383-3.765 5.876-3.765 7.48 0 .836.31 1.255.928 1.255 1.964-.072 4.91-2.437 8.841-7.095.325-.325.57-.487.736-.487.167 0 .248.11.246.328 0 .727-1.801 2.692-5.403 5.893-2.256 1.962-3.784 2.943-4.584 2.943zm25.758-16.098l.764-.164c.43.011.84.186 1.146.487.364.325.546.58.546.764a52.277 52.277 0 01-3.384 5.263c-2.255 3.328-3.383 5.647-3.383 6.957 0 .112.019.222.054.328.182.836.582 1.253 1.201 1.253 1.891 0 5.348-3.128 10.368-9.386a.475.475 0 01.383-.218c.145 0 .218.136.218.409a1.99 1.99 0 01-.487 1.064c-4.657 6.222-8.204 9.333-10.642 9.333a2.625 2.625 0 01-.928-.163 3.53 3.53 0 01-2.401-3.606 8.02 8.02 0 01.219-1.852l-3.384 3.274c-2.152 1.897-3.708 2.846-4.669 2.846a4.692 4.692 0 01-2.756-.928 3.423 3.423 0 01-1.473-2.892c0-2.656 1.856-5.83 5.567-9.523 3.712-3.693 7.113-5.54 10.203-5.542a2.393 2.393 0 012.401 1.255c.109.291.2.537.273.737.073.2.128.301.164.304zm-16.317 13.424c0 1.31.455 1.965 1.365 1.965 2.11 0 4.984-2.31 8.622-6.932l5.785-7.968a1.51 1.51 0 00-1.419-.764c-2.219 0-5.166 1.72-8.841 5.157-3.674 3.438-5.512 6.286-5.512 8.542zM74.53 24.679C76 20.832 84.71 14.525 88.338 11.673a2.664 2.664 0 012.97-.159c2.18 1.846 2.96 2.288 4.458 1.735 1.591-.584 1.622-1.824 6.991-5.99 1.546-1.2 3.055-1.267 5.03-.808 1.476.343 2.99 2.2 12.181 1.595 2.794-.184-4.722 2.654-10.135 2.522-5.412-.131-5.463-1.48-7.952-.157-2.49 1.322-1.408 5.233-4.37 7.489-2.962 2.255-6.609-2.515-8.39-2.522-3.594-.019-13.027 9.537-14.591 9.3zM61.915 19.862C63.34 15.728 71.78 8.953 75.295 5.89a2.377 2.377 0 012.88-.17c2.113 1.983 2.868 2.457 4.32 1.864 1.542-.63 1.57-1.96 6.774-6.432 1.499-1.29 2.96-1.365 4.872-.867 1.43.369 2.897 2.364 11.809 1.714 2.708-.195-4.58 2.85-9.824 2.71-5.243-.14-5.293-1.59-7.706-.17-2.413 1.42-1.365 5.622-4.234 8.046-2.87 2.423-6.405-2.7-8.13-2.71-3.484-.02-12.628 10.247-14.143 9.993l.002-.006z" fill="#04040C"/></svg>