<svg width="30" height="25" xmlns="http://www.w3.org/2000/svg"><path fill-rule="evenodd" clip-rule="evenodd" d="M22.98 24.724c.403.285.922.356 1.384.181a1.45 1.45 0 00.905-1.05c1.087-5.105 3.722-18.026 4.71-22.67a.976.976 0 00-.325-.947 1.001 1.001 0 00-.996-.175C23.417 2.003 7.276 8.059.678 10.5A1.033 1.033 0 000 11.5c.015.442.313.826.742.955 2.958.885 6.842 2.116 6.842 2.116s1.815 5.482 2.761 8.269c.12.35.393.625.754.72.36.094.745-.005 1.014-.259l3.87-3.654s4.465 3.274 6.997 5.078zM9.218 13.878l2.099 6.922.466-4.384L24.514 4.934a.347.347 0 00.041-.471.355.355 0 00-.47-.08c-5.357 3.42-14.867 9.495-14.867 9.495z"/></svg>