<svg width="31" height="25" xmlns="http://www.w3.org/2000/svg"><path d="M30.763 2.96a12.6 12.6 0 01-3.625.993A6.321 6.321 0 0029.913.461a12.643 12.643 0 01-4.008 1.532A6.3 6.3 0 0021.298 0c-4.075 0-7.069 3.802-6.148 7.748A17.917 17.917 0 012.142 1.155 6.32 6.32 0 004.094 9.58a6.285 6.285 0 01-2.857-.79c-.07 2.925 2.026 5.66 5.062 6.269a6.326 6.326 0 01-2.851.107 6.316 6.316 0 005.896 4.383A12.69 12.69 0 010 22.165 17.867 17.867 0 009.675 25c11.718 0 18.338-9.897 17.939-18.773a12.851 12.851 0 003.149-3.267z" /></svg>